<svg xmlns="http://www.w3.org/2000/svg" xmlns:xlink="http://www.w3.org/1999/xlink" width="35" height="40" viewBox="0 0 35 40">
  <defs>
    <linearGradient id="linear-gradient" x1="0.5" x2="0.5" y2="1" gradientUnits="objectBoundingBox">
      <stop offset="0" stop-color="#3ca6a6"/>
      <stop offset="0.464" stop-color="#10505a"/>
      <stop offset="1" stop-color="#012e40"/>
    </linearGradient>
  </defs>
  <g id="Logos" transform="translate(-111 -48)">
    <g id="Logo_02" data-name="Logo 02">
      <g id="Elipse_01" data-name="Elipse 01" transform="translate(113 57)" fill="none" stroke="#0e4c57" stroke-width="4">
        <circle cx="15.5" cy="15.5" r="15.5" stroke="none"/>
        <circle cx="15.5" cy="15.5" r="13.5" fill="none"/>
      </g>
    </g>
    <g id="Logo_01" data-name="Logo 01">
      <path id="Polígono_01" data-name="Polígono 01" d="M13.758,9.908a4,4,0,0,1,7.484,0l2.233,5.912a4,4,0,0,0,.669,1.147l3.972,4.768a4,4,0,0,1-3.727,6.506l-6.234-1.033a4,4,0,0,0-1.308,0l-6.234,1.033a4,4,0,0,1-3.727-6.506l3.972-4.768a4,4,0,0,0,.669-1.147Z" transform="translate(146 78) rotate(180)" fill="url(#linear-gradient)"/>
    </g>
  </g>
</svg>
