<svg id="Grupo_102" data-name="Grupo 102" xmlns="http://www.w3.org/2000/svg" xmlns:xlink="http://www.w3.org/1999/xlink" width="35" height="40" viewBox="0 0 35 40">
  <defs>
    <style>
      .cls-1, .cls-4 {
        fill: none;
      }

      .cls-1 {
        stroke: #0e4c57;
        stroke-width: 4px;
      }

      .cls-2 {
        fill: url(#linear-gradient);
      }

      .cls-3 {
        stroke: none;
      }
    </style>
    <linearGradient id="linear-gradient" x1="0.5" x2="0.5" y2="1" gradientUnits="objectBoundingBox">
      <stop offset="0" stop-color="#3ca6a6"/>
      <stop offset="0.464" stop-color="#10505a"/>
      <stop offset="1" stop-color="#012e40"/>
    </linearGradient>
  </defs>
  <g id="Elipse_6" data-name="Elipse 6" class="cls-1" transform="translate(2 9)">
    <circle class="cls-3" cx="15.5" cy="15.5" r="15.5"/>
    <circle class="cls-4" cx="15.5" cy="15.5" r="13.5"/>
  </g>
  <path id="Polígono_1" data-name="Polígono 1" class="cls-2" d="M13.758,9.908a4,4,0,0,1,7.484,0l2.233,5.912a4,4,0,0,0,.669,1.147l3.972,4.768a4,4,0,0,1-3.727,6.506l-6.234-1.033a4,4,0,0,0-1.308,0l-6.234,1.033a4,4,0,0,1-3.727-6.506l3.972-4.768a4,4,0,0,0,.669-1.147Z" transform="translate(35 30) rotate(180)"/>
</svg>
